PathFileType	4	(X/Y/Z)	C:\Users\Basilio\Documents\Thesis Gigler\squatting_fais\c3dfiles\039\SLS_pre_back2\markers_experimental.trc
DataRate	CameraRate	NumFrames	NumMarkers	Units	OrigDataRate	OrigDataStartFrame	OrigNumFrames
200.000000	200.000000	4	63	mm	200.000000	0	1684
Frame#	Time	FHD			LBHD			RBHD			C7			T10			LSHO			LUUPA			LMUPA			LDUPA			LLEP			LMEP			LRAD			LUL			LRFIN			RSHO			RUPA1			RMUPA			RDUPA			RLEP			RMEP			RRAD			RUL			RUFIN			LASI			RASI			USACR			LSACR			RSACR			LTHI1			LTHI2			LTHI3			LTHI4			LMFC			LTIB1			LTIB2			LTIB3			LTIB4			LLMAL			LMMAL			LHEE			LMT1			LMT2			LMT5			RTHI			RTHI2			RTHI3			RTHI4			RLFC			RMFC			RTIB1			RTIB2			RTIB3			RTIB4			RLMAL			RMMAL			RHEE			RMT1			RMT2			RMT5			LLFC			CLAV			*61			*62			
		X1	Y1	Z1	X2	Y2	Z2	X3	Y3	Z3	X4	Y4	Z4	X5	Y5	Z5	X6	Y6	Z6	X7	Y7	Z7	X8	Y8	Z8	X9	Y9	Z9	X10	Y10	Z10	X11	Y11	Z11	X12	Y12	Z12	X13	Y13	Z13	X14	Y14	Z14	X15	Y15	Z15	X16	Y16	Z16	X17	Y17	Z17	X18	Y18	Z18	X19	Y19	Z19	X20	Y20	Z20	X21	Y21	Z21	X22	Y22	Z22	X23	Y23	Z23	X24	Y24	Z24	X25	Y25	Z25	X26	Y26	Z26	X27	Y27	Z27	X28	Y28	Z28	X29	Y29	Z29	X30	Y30	Z30	X31	Y31	Z31	X32	Y32	Z32	X33	Y33	Z33	X34	Y34	Z34	X35	Y35	Z35	X36	Y36	Z36	X37	Y37	Z37	X38	Y38	Z38	X39	Y39	Z39	X40	Y40	Z40	X41	Y41	Z41	X42	Y42	Z42	X43	Y43	Z43	X44	Y44	Z44	X45	Y45	Z45	X46	Y46	Z46	X47	Y47	Z47	X48	Y48	Z48	X49	Y49	Z49	X50	Y50	Z50	X51	Y51	Z51	X52	Y52	Z52	X53	Y53	Z53	X54	Y54	Z54	X55	Y55	Z55	X56	Y56	Z56	X57	Y57	Z57	X58	Y58	Z58	X59	Y59	Z59	X60	Y60	Z60	X61	Y61	Z61	X62	Y62	Z62	X63	Y63	Z63	

1	0	-221.3857574462891	1773.66650390625	-644.5720214843751	-384.2493286132814	1759.691772460938	-762.3293457031251	-353.2352905273438	1760.566650390625	-623.9943237304689	-431.9747314453126	1587.553955078125	-704.1254272460939	-443.5810546875001	1277.68798828125	-733.2868652343751	-364.7595825195313	1599.845703125	-864.2503662109377	-204.5125579833985	1553.237548828125	-978.5880126953127	-179.1291046142578	1585.067626953125	-948.832458496094	-134.950180053711	1560.447387695313	-980.2065429687502	-68.25098419189455	1567.220825195313	-977.5859375000002	-64.71128845214845	1496.5771484375	-944.0986938476565	210.7942962646485	1589.035522460938	-884.7427978515627	211.8681945800782	1597.807495117188	-960.5914306640627	287.5623779296876	1632.51953125	-876.554382324219	-313.4641723632813	1570.52197265625	-542.3794555664064	-152.2835845947266	1490.364501953125	-455.8941650390626	-125.6565780639649	1525.660766601563	-478.0389709472657	-82.78537750244142	1488.170043945313	-457.1977844238282	-19.83574104309082	1503.535766601563	-469.4075012207032	-17.23990631103516	1439.947875976563	-515.1693115234376	258.4295043945313	1559.97412109375	-575.5297851562501	267.4098205566407	1545.284423828125	-501.0459594726564	340.8905334472657	1603.020385742188	-574.7460327148439	-283.2729797363282	1102.99365234375	-877.1763916015627	-259.3023681640626	1077.370483398438	-655.4390258789064	-453.2839965820314	1149.230712890625	-740.3904418945314	-459.3204040527345	1119.564575195313	-771.0114746093752	-451.6987915039064	1113.527954101563	-711.7849731445314	-304.0157470703126	841.4222412109377	-992.0435180664065	-252.8468933105469	776.2384033203127	-1013.5322265625	-206.5288848876954	787.2671508789065	-1011.152526855469	-265.3000488281251	715.5301513671876	-1007.041625976563	-199.2694702148438	580.4542846679689	-912.8194580078127	-314.2412719726563	511.824920654297	-985.1544189453127	-383.9821472167969	565.1192626953126	-996.3442382812502	-370.8581237792969	523.6463012695314	-991.523620605469	-430.755096435547	488.2921752929689	-936.9109497070315	-614.1227416992189	490.4443969726564	-912.2877197265627	-576.8908081054689	464.1091613769532	-838.021423339844	-654.9183349609376	540.5321044921876	-848.9768066406252	-614.4909057617189	309.6206359863282	-854.813415527344	-634.6088256835939	315.9586791992188	-892.8360595703127	-687.4258422851564	354.9313659667969	-919.7980957031252	-292.8657836914063	803.6570434570315	-610.3276977539064	-247.9505004882813	753.6492309570314	-612.8185424804689	-216.9916992187501	760.4571533203126	-619.7523803710939	-268.0195617675782	672.5496826171876	-632.3684082031251	-292.7777404785157	534.3264160156251	-669.7802734375001	-257.1830444335938	536.7908325195314	-784.3632812500002	-268.4600219726563	323.4223937988282	-708.9479980468751	-357.9567260742188	264.0408325195313	-708.3277587890626	-313.5381469726563	251.5786285400391	-709.6914672851564	-298.2011413574219	206.9299926757813	-747.3846435546876	-373.0195007324219	117.6763000488282	-736.0198364257814	-339.4900512695313	141.241455078125	-817.3813476562502	-441.231903076172	99.38977050781253	-792.291687011719	-215.540267944336	56.59851074218751	-804.0208129882815	-219.8971252441407	55.48973083496095	-758.5001220703126	-275.1292724609376	33.61757278442384	-708.3110961914064	nan	nan	nan	nan	nan	nan	-241.1459655761719	629.5947875976564	-1010.436218261719	nan	nan	nan	
2	0.005	-221.2595825195313	1773.627807617188	-644.4623413085939	-384.3821411132814	1759.652587890625	-761.9465942382814	-353.0842285156251	1760.504760742188	-623.8300781250001	-431.8502502441407	1587.484497070313	-703.9213256835939	-443.5725097656251	1277.693481445313	-733.2290039062501	-364.7653503417969	1599.841918945313	-864.0830078125002	-204.5455627441407	1553.304931640625	-978.429870605469	-179.136474609375	1585.140991210938	-948.7136840820315	-134.9214782714844	1560.501098632813	-980.1360473632815	-68.24806213378908	1567.279541015625	-977.4605712890627	-64.68867492675783	1496.620239257813	-943.9877929687502	210.8051147460938	1589.0380859375	-884.7395019531252	211.8614044189454	1597.846923828125	-960.6057739257815	287.5507507324219	1632.523193359375	-876.5896606445315	-313.3845214843751	1570.441162109375	-542.2150268554689	-152.1610260009766	1490.28466796875	-455.7747802734376	-125.5482177734375	1525.538208007813	-477.8835754394532	-82.67173767089845	1488.076416015625	-457.0507812500001	-19.72016716003418	1503.448486328125	-469.2501220703126	-17.00242042541504	1440.756225585938	-514.5277099609376	258.5578918457032	1560.057250976563	-575.3363647460939	267.4500122070313	1545.34130859375	-500.8042602539064	341.0141601562501	1603.132080078125	-574.5374755859376	-283.2399902343751	1102.994018554688	-877.1984863281252	-259.2487792968751	1077.327026367188	-655.4868774414064	-453.2475585937501	1149.2470703125	-740.3223876953126	-459.2445068359376	1119.572021484375	-770.9462890625002	-451.6589965820314	1113.54248046875	-711.7420654296876	-304.2265014648438	841.4239501953127	-992.1577148437502	-253.1096496582032	776.1882324218752	-1013.734313964844	-207.212142944336	787.7149658203127	-1011.490295410156	-265.5064392089844	715.5252075195314	-1007.226440429688	-199.4720916748047	580.4030151367189	-913.132995605469	-313.6138000488282	510.6218261718751	-984.9760742187502	-384.2425842285157	565.0507812500001	-996.551452636719	-371.1431579589844	523.5886230468751	-991.703308105469	-430.9259643554689	488.2596740722657	-937.0643310546877	-614.3364257812501	490.379119873047	-912.340270996094	-577.0308837890626	464.023651123047	-838.1121826171877	-655.0894775390626	540.3880615234376	-848.9659423828127	-614.5902709960939	309.4907531738282	-854.9051513671877	-634.7634887695314	315.8498229980469	-892.9304809570315	-687.4010009765626	354.2238769531251	-919.9895629882815	-292.7985534667969	803.664978027344	-610.2362060546876	-247.9019165039063	753.6585083007814	-612.7454223632814	-216.9285736083985	760.4594726562501	-619.5993041992189	-267.9704589843751	672.5181274414064	-632.2470092773439	-292.5410766601563	534.1406250000001	-669.5975952148439	-256.9914245605469	536.7944946289064	-784.1941528320315	-268.4331665039063	323.3697509765626	-708.8364868164064	-357.9562377929688	264.0534973144532	-708.2383422851564	-313.4858398437501	251.6180114746094	-709.5748901367189	-298.1969299316407	206.923812866211	-747.2517700195314	-373.0198669433594	117.6710586547852	-735.9338989257814	-339.4644775390626	141.283447265625	-817.260681152344	-441.2188415527345	99.41297912597659	-792.2256469726565	-215.568099975586	56.636287689209	-803.9707641601565	-219.9022979736329	55.51681137084962	-758.4515380859376	-275.1574401855469	33.58148574829102	-708.3295898437501	-241.4197540283204	629.5736694335939	-1010.619812011719	nan	nan	nan	nan	nan	nan	nan	nan	nan	
3	0.01	-221.1856384277344	1773.56884765625	-644.2998657226564	-384.3970031738282	1759.6455078125	-761.5841064453126	-353.0101623535157	1760.48388671875	-623.5927124023439	-431.7957153320314	1587.4697265625	-703.7111816406251	-443.510955810547	1277.656127929688	-733.1523437500001	-364.6997375488282	1599.902099609375	-863.872009277344	-204.5472564697266	1553.369995117188	-978.2918090820315	-179.1029357910157	1585.211791992188	-948.5947265625002	-134.9444580078125	1560.577026367188	-980.0550537109377	-68.19507598876955	1567.318359375	-977.392761230469	-64.72109985351564	1496.640014648438	-943.8953247070315	210.8448028564454	1589.084350585938	-884.8211059570315	211.8306884765626	1597.919311523438	-960.6378173828127	287.6009216308594	1632.584106445313	-876.627136230469	-313.3159179687501	1570.313720703125	-542.0358276367189	-152.0487213134766	1490.156127929688	-455.6172180175782	-125.4485244750977	1525.477294921875	-477.6809387207032	-82.58212280273439	1487.975830078125	-456.8938903808595	-19.63535499572754	1503.376953125	-469.0301818847657	-16.87161636352539	1440.722778320313	-514.4832153320314	258.6535949707032	1560.139404296875	-575.1331176757814	267.5340576171876	1545.421020507813	-500.6240234375001	341.0819091796876	1603.205322265625	-574.3412475585939	-283.2348327636719	1102.964111328125	-877.2207031250002	-259.1442565917969	1077.306640625	-655.4574584960939	-453.2232055664064	1149.249145507813	-740.2886352539064	-459.2208862304689	1119.573974609375	-770.878601074219	-451.6260070800782	1113.551513671875	-711.7047729492189	-304.3981628417969	841.4440917968752	-992.2457275390627	-253.3303375244141	776.1670532226565	-1013.902465820313	-207.4620208740235	787.675231933594	-1011.739929199219	-265.7624816894532	715.4982910156251	-1007.366943359375	-199.6453399658204	580.3865356445314	-913.4119873046877	-313.7907714843751	510.5823974609376	-985.186950683594	-384.5171203613282	565.0388793945314	-996.7349243164065	-371.3577270507813	523.6033935546876	-991.8829345703127	-431.0552368164064	488.1172485351564	-937.164978027344	-614.4832763671876	490.3465270996095	-912.3628540039065	-577.1293945312501	463.9970703125001	-838.2216796875002	-655.3203125000001	540.3316040039064	-848.9718017578127	-614.6754150390626	309.3974609375001	-855.1550292968752	-634.7984008789064	315.8238525390626	-893.0747070312502	-687.4653320312501	354.1948242187501	-920.052673339844	-292.7340393066407	803.6548461914065	-610.2328491210939	-248.3050842285157	753.0981445312501	-613.0977783203126	-216.8858032226563	760.4171752929689	-619.4304809570314	-267.8935241699219	672.5130004882814	-632.1390991210939	-292.4476928710938	534.1514892578126	-669.5299682617189	-256.8510131835938	536.7377319335939	-784.086120605469	-268.4163513183594	323.3623352050782	-708.7109375000001	-357.9326782226563	264.0813598632813	-708.1486206054689	-313.5188293457032	251.6036834716797	-709.5081176757814	-298.1411437988282	206.9206695556641	-747.1322631835939	-373.0335998535157	117.6466293334961	-735.8613281250001	-339.4127197265626	141.3190307617188	-817.1382446289065	-440.8918762207032	99.04676818847659	-792.2488403320315	-215.5637664794922	56.68225479125978	-803.8979492187502	-219.890121459961	55.5595054626465	-758.4169311523439	-275.1595458984376	33.57534790039063	-708.2648925781251	-241.6102905273438	629.5586547851564	-1010.776428222656	nan	nan	nan	nan	nan	nan	nan	nan	nan	
4	0.015	-221.0651245117188	1773.525390625	-644.1663818359376	-383.5883789062501	1759.5234375	-761.3643798828126	-352.8507080078126	1760.432983398438	-623.2785034179689	-431.7234497070314	1587.404541015625	-703.4971923828126	-443.4237670898439	1277.699340820313	-733.0804443359376	-365.2172241210938	1600.255249023438	-863.7363281250002	-204.5657958984376	1553.40673828125	-978.1356201171877	-179.1261291503907	1585.241577148438	-948.4715576171877	-134.8845672607422	1560.621459960938	-979.9451904296877	-68.17230224609376	1567.411010742188	-977.303161621094	-64.63404846191408	1496.742431640625	-943.8837890625002	210.631088256836	1589.185546875	-885.358093261719	211.8889312744141	1597.93310546875	-960.6623535156252	287.6956481933594	1632.611572265625	-876.7019653320315	-313.2959289550782	1570.222290039063	-541.8545532226564	-151.9571838378907	1490.032104492188	-455.474090576172	-125.4089813232422	1525.363891601563	-477.5112915039064	-82.47867584228517	1487.884521484375	-456.8101196289064	-19.55646324157715	1503.328857421875	-468.8345031738282	-17.03909492492676	1440.43115234375	-514.7288208007814	258.7348327636719	1560.24755859375	-574.9508666992189	267.6560363769532	1545.45654296875	-500.405975341797	341.2141113281251	1603.32470703125	-574.1347656250001	-283.2618713378907	1102.962280273438	-877.2421875000002	-259.0644531250001	1077.306396484375	-655.5279541015626	-453.1079101562501	1149.250854492188	-740.2300415039064	-459.1703186035157	1119.54150390625	-770.8491210937502	-451.5787353515626	1113.549438476563	-711.6486816406251	-304.6281738281251	841.4058227539065	-992.3538818359377	-253.5749969482422	776.1577758789065	-1014.041931152344	-207.7143096923829	787.6619262695315	-1011.983093261719	-266.0277404785157	715.4826049804689	-1007.468383789063	-199.7712554931641	580.3900146484376	-913.627380371094	-313.9848937988282	510.554901123047	-985.3475341796877	-384.6709899902345	565.0428466796876	-996.892517089844	-371.5959472656251	523.5831909179689	-992.0439453125002	-431.3527832031251	488.4068908691407	-937.9568481445315	-614.7392578125001	490.399383544922	-912.4395141601565	-577.2194824218751	464.0190429687501	-838.2380371093752	-655.5061645507814	540.2880249023439	-848.9414062500002	-614.7618408203126	309.3988952636719	-855.2496337890627	-634.8883666992189	315.8869018554688	-893.235778808594	-687.6130371093751	354.2138061523438	-920.1789550781252	-292.6900634765626	803.6551513671877	-610.1676025390626	-248.2562408447266	753.0834350585939	-613.0219726562501	-216.7630004882813	760.3973999023439	-619.2731933593751	-267.8500671386719	672.4782714843751	-632.0269775390626	-292.3081970214844	534.1210327148439	-669.3790283203126	-256.5763854980469	536.7338256835939	-783.9312133789065	-268.3648681640626	323.4011230468751	-708.5447998046876	-357.9007873535157	264.1005859375001	-708.1084594726564	-313.4658813476563	251.5872650146485	-709.4393310546876	-298.1438293457032	206.9053649902344	-747.0332031250001	-373.0596618652344	117.6596069335938	-735.7868652343751	-339.3622131347657	141.3571929931641	-817.079040527344	-441.2307434082032	99.44421386718753	-792.1608886718752	-215.5231323242188	56.75397872924806	-803.820007324219	-219.8874206542969	55.56575775146486	-758.4119262695314	-275.1700744628907	33.52251052856446	-708.2403564453126	-241.7992248535157	629.5991210937501	-1010.956970214844	nan	nan	nan	nan	nan	nan	nan	nan	nan	
